<svg viewBox="0 0 960 720" xmlns="http://www.w3.org/2000/svg" fill-rule="evenodd" clip-rule="evenodd" stroke-linecap="round" stroke-linejoin="round" stroke-miterlimit="1.5"><path d="M960 144C960 64.524 895.476 0 816 0H144C64.524 0 0 64.524 0 144v432c0 79.476 64.524 144 144 144h672c79.476 0 144-64.524 144-144V144z" fill="none"/><clipPath id="a"><path d="M960 144C960 64.524 895.476 0 816 0H144C64.524 0 0 64.524 0 144v432c0 79.476 64.524 144 144 144h672c79.476 0 144-64.524 144-144V144z"/></clipPath><g clip-path="url(#a)"><path d="M-1.839 287.87c41.383 1.195 851.513-13.988 966.736-23.397 254.723-20.799 35.022 253.16 17.069 255.007-213.698 21.99-500.089 15.639-990.901 7.722-33.145-.535-234.967-246.324 7.096-239.332z" fill="#fb933e"/><path d="M-15.231 516.388c134.061.546 179.177-44.195 211.066-46.943 19.738-1.7 92.648 51.997 173.411 49.446 33.202-1.048-9.298 18.276-21.649 18.334-146.244.693-11.886 8.67-347.771 2.474-22.683-.418-69.416-23.532-15.057-23.311z" fill="#453e72"/><path d="M-12.457 516.451c445.485 11.578 468.189-76.107 514.787-79.619 28.842-2.173 71.688 94.685 468.7 82.012 48.509-1.549 33.248 48.029 15.201 48.104-213.699.886-512.781 2.471-1003.59-5.446-33.144-.535-74.492-47.115 4.905-45.051z" fill="#5c5686"/><path d="M-1.21 226.963c41.158 0 880.333-21.747 963.429-21.747 0 0 24.89 56.962 6.937 58.81-213.698 21.989-190.797 88.507-359.255 89.793-109.047.832-139.137-58.353-629.949-66.27-33.144-.535 18.838-60.586 18.838-60.586z" fill="#fdbf81"/><path d="M-.016-.02C41.142-.02 876.91 0 960.006 0c0 0 9.15 182.737 9.15 200.785 0 14.117-128.02 20.035-190.302 61.385-62.383 41.417-102.715 91.652-169.837 91.652-67.122 0-145.393-63.106-208.071-87.124-103.801-39.777-393.313-29.216-420.994-42.39C-23.394 222.715-.016-.02-.016-.02z" fill="#feebcb"/><path d="M338.906 319.21v-39.576l75.487-118.727h64.494v118.727h21.62v39.576h-21.62v29.315H430.15V319.21h-91.244zM718.793 319.21v-39.576l75.487-118.727h64.494v118.727h21.62v39.576h-21.62v29.315h-48.737V319.21h-91.244z" fill="#fdfdfa" fill-rule="nonzero"/><path d="M-1.839 287.87c41.383 1.195 195.782 1.182 361.13 23.608 45.659 6.193 90.731 14.468 134.797 24.284 38.694 8.619 76.354 19.057 116.973 18.044 48.318-1.204 84.957-5.973 116.058-17.755 74.531-28.235 122.555-62.169 237.778-71.578 254.723-20.799 57.326 137.922 39.373 139.77-213.698 21.989-524.623-5.923-1015.44-13.84-33.145-.535-232.737-109.525 9.326-102.533z" fill="#fb933e" fill-opacity=".25"/><path d="M-.016-.02C41.142-.02 876.91 0 960.006 0c0 0 9.15 182.737 9.15 200.785 0 14.117-128.02 20.035-190.302 61.385-62.383 41.417-102.715 91.652-169.837 91.652-67.122 0-145.393-63.106-208.071-87.124-103.801-39.777-393.313-29.216-420.994-42.39C-23.394 222.715-.016-.02-.016-.02z" fill="#fdb165" fill-opacity=".25"/><circle cx="609.459" cy="249.895" r="101.716" fill="#fdb165"/><circle cx="607.046" cy="255.001" r="93.977" fill="#fdfdfa"/><path d="M480.031 554.877l-.134-140.953 28.19-61.083 19.935-24.602 31.684-17.686 67.057-22.799-67.057 22.799 24.476-61.609-24.476 61.609-31.684 17.686 2.515-17.099 17.267-31.014-9.165 16.46-.894-16.628.894 16.628-8.102 14.554-2.515 17.099-19.935 24.602 18.736-92.105 21.164-59.408 7.754-4.191-7.754 4.191 2.096-10.688-2.096 10.688-21.164 59.408-19.908-60.666 6.693 20.397 2.737-6.147-2.737 6.147 8.495 25.885-14.559-7.515 14.559 7.515 4.72 14.384-18.736 92.105-28.19 61.083-56.384-66.433-27.049-22.527-39.396-45.683 39.396 45.683-14.879-38.768 9.326 24.3 2.2-9.002-2.2 9.002 5.553 14.468 27.049 22.527 14.861-57.732-3.242 12.595-18.761-26.216 18.761 26.216-11.619 45.137 56.384 66.433.134 140.953z" fill="none" stroke="#db2e4c" stroke-width="10"/><path d="M-15.103 561.538c73.332-4.28 137.656-15.586 198.115-10.29 236.528 20.718 345.909-11.172 415.658-13.606 136.723-4.772 158.666 24.629 378.73 11.893 37.016-2.142 12.106 177.975-21.586 178.139-398.943 1.944-41.217 18.728-957.489 1.346-61.876-1.174-84.975-163.306-13.428-167.482z" fill="#8d85b6"/></g></svg>