<svg viewBox="0 0 580 176" xmlns="http://www.w3.org/2000/svg" fill-rule="evenodd" clip-rule="evenodd" stroke-linejoin="round" stroke-miterlimit="2"><g fill="#c69539" fill-rule="nonzero"><path d="M196.034 31.082c5.031-5.105 12.043-7.277 18.776-9.082a230.436 230.436 0 00-.081 9.332c-5.819 1.731-11.668 4.751-14.651 10.312 6.011-1.031 12.573 1.179 16.08 6.305.972-8.183 5.944-15.593 12.786-20.071 4.383-3.072 9.635-4.471 14.739-5.849 0 3.094-.044 6.195-.074 9.296-3.506 1.223-7.093 2.519-10.039 4.854-1.937 1.407-3.167 3.513-4.545 5.428 4.737-.604 9.907.347 13.524 3.632 7.38 6.739 5.576 20.786-3.477 25.205-6.364 3.153-14.915 1.878-19.475-3.778-1.06-.973-1.355-2.807-2.725-3.352-3.455 8.22-14.385 11.152-21.913 6.843-4.714-2.512-7.616-7.631-8.176-12.846-1.002-9.502 2.033-19.725 9.251-26.229zM527.638 23.819c7.793-4.014 18.473-.449 21.788 7.808 1.414-3.234 3.749-6.15 6.968-7.705 5.929-2.968 13.774-2.055 18.48 2.755 4.287 4.037 5.517 10.29 5.024 15.954-.464 7.999-3.816 15.991-10.003 21.236-4.987 4.603-11.571 6.901-18.083 8.345.037-3.094.074-6.18.037-9.273 5.856-1.606 11.557-4.715 14.592-10.202-5.959.965-12.463-1.178-15.969-6.239-1.061 6.99-4.714 13.538-10.224 17.98-4.898 4.25-11.203 6.305-17.405 7.771-.015-3.109.015-6.21.088-9.303 5.871-1.643 11.587-4.751 14.658-10.238-4.655.655-9.759-.243-13.376-3.403-7.646-6.703-5.856-21.096 3.425-25.486zM267.629 25.447c4.906-1.119 10.732.206 13.627 4.604 2.386 3.705 2.025 9.06-1.01 12.293-5.59 6.305-18.237 4.589-20.594-3.992-1.849-5.672 2.261-11.837 7.977-12.905zM413.971 24.703c6.864.059 13.729 0 20.594.037.03 32.726.007 65.452.015 98.185-6.872.007-13.737.007-20.602 0 0-3.072.007-6.136-.015-9.207-3.233 4.647-7.822 8.536-13.413 9.899-7.299 1.768-15.46.994-21.861-3.123-6.909-4.581-11.115-12.418-12.264-20.521-1.584-10.717-.7-22.391 5.23-31.739 4.066-6.54 10.835-11.461 18.488-12.735 5.789-.928 12.094-.714 17.331 2.173 2.755 1.466 4.736 3.948 6.482 6.467.044-13.148.022-26.288.015-39.436m-16.75 46.411c-6.084 1.518-9.332 7.779-10.231 13.546-.906 6.46-.803 13.693 3.094 19.239 4.419 6.187 14.621 6.607 19.637.928 4.53-4.81 4.942-11.8 4.721-18.053.147-4.471-1.09-9.2-4.316-12.441-3.256-3.395-8.456-4.301-12.905-3.219zM299.861 60.5c9.649-4.132 20.359-6.238 30.855-5.178 7.27.7 14.79 4 18.613 10.519 4.515 7.351 4.221 16.315 4.191 24.623v32.439h-19.43c-.008-3.256 0-6.504-.008-9.753-2.622 4-5.951 7.793-10.533 9.546-6.614 2.615-14.503 2.534-20.837-.825-5.303-2.813-8.64-8.566-9.134-14.473-.589-5.907.42-12.404 4.464-16.985 4.287-4.935 10.828-7.108 17.11-8.066 6.357-.921 12.728-1.768 19.1-2.593-.096-3.137-.877-6.592-3.551-8.551-3.366-2.556-7.888-2.423-11.888-2.099-6.835.596-13.376 3.204-19.033 7.034-.007-5.215.162-10.423.081-15.638m17.118 34.023c-5.148 2.047-6.371 9.627-2.291 13.273 4.773 3.867 12.574 2.489 16.301-2.217 3.403-3.801 3.344-9.208 3.219-13.995-5.738.913-11.778.744-17.229 2.939zM453.311 60.5c10.334-4.397 21.898-6.592 33.079-4.861 7.034 1.046 13.87 5.031 17.125 11.535 4.11 7.844 3.352 16.97 3.455 25.537.037 10.061.022 20.123.022 30.192H487.48c0-3.249.015-6.49-.029-9.73-2.917 4.736-7.211 8.846-12.699 10.326-6.592 1.768-14.193 1.4-19.998-2.482-4.22-2.909-7.019-7.668-7.638-12.743-.795-6.135.133-12.926 4.258-17.773 4.242-4.913 10.724-7.137 16.97-8.117 6.438-.943 12.89-1.79 19.343-2.63.162-4.434-2.247-9.177-6.858-10.201-9.568-2.011-19.475 1.282-27.526 6.43.008-5.163.074-10.327.008-15.483m21.758 32.66c-2.681.435-5.458 1.311-7.41 3.3-2.961 3.322-2.615 9.347 1.186 11.91 4.979 3.167 12.242 1.635 15.777-3.042 3.219-3.786 3.168-9.045 2.947-13.722-4.169.479-8.346.935-12.5 1.554zM260.617 56.611c6.872 0 13.737-.007 20.609 0-.037 20.882-.103 41.757-.103 62.638.059 5.642-.273 11.402-2.151 16.779-2.224 6.394-6.511 12.367-12.757 15.321-7.101 3.292-15.476 3.454-22.819.84.007-5.385-.059-10.776-.008-16.161 3.786 2.166 8.913 3.624 12.787.847 3.904-3.152 4.361-8.632 4.486-13.28.007-22.333-.074-44.658-.044-66.984z"/></g><circle cx="88" cy="88" fill="url(#_Linear1)" r="88"/><defs><linearGradient id="_Linear1" x1="0" y1="0" x2="1" y2="0" gradientUnits="userSpaceOnUse" gradientTransform="scale(-175.9523) rotate(-57.345 -.448 .659)"><stop offset="0" stop-color="#db2e4c"/><stop offset="1" stop-color="#d3ad66"/></linearGradient></defs></svg>